<svg xmlns="http://www.w3.org/2000/svg" xmlns:xlink="http://www.w3.org/1999/xlink" width="382" height="369.911" viewBox="0 0 382 369.911"><defs><style>.a{fill:none;}.b{clip-path:url(#a);}.c{fill:#fff;}</style><clipPath id="a"><rect class="a" width="382" height="369.911"/></clipPath></defs><g transform="translate(0 0)"><g class="b" transform="translate(0 0)"><path class="c" d="M36.649,59.309a102.841,102.841,0,0,1,18.219-9.333L58.8,48.517q7.62-2.83,13.929.051t9.142,10.508l9.593,25.781q3.13,8.408.139,14.947t-11.4,9.663L38.717,124.9,9.525,46.435l19.613-7.306Zm26.432,9.3A4.079,4.079,0,0,0,57.7,66.155l-2.8,1.036a68.474,68.474,0,0,0-7.962,3.476c-2.161,1.148-3.862,2.031-5.071,2.654l10.843,29.146L68.4,96.63q4.483-1.666,2.817-6.154Z" transform="translate(34.744 142.732)"/><path class="c" d="M25.829,53.242A366.474,366.474,0,0,1,61.984,37.235q7.627-2.837,13.929.051t9.147,10.508l16.267,43.716L83.953,97.976l-3.207-5.187a42.94,42.94,0,0,1-8.919,9.128,36.738,36.738,0,0,1-8.761,5.108l-3.923,1.464q-7.627,2.837-13.929-.051T36.073,97.925L34.2,92.877q-2.837-7.627.046-13.925t10.508-9.142l22.983-8.552-1.669-4.48a4.1,4.1,0,0,0-5.387-2.468q-7.292,2.712-15.835,6.656T31.039,67.255Zm37.005,36A50.811,50.811,0,0,0,75.453,82l-2.5-6.725L56.694,81.323A4.077,4.077,0,0,0,54.227,86.7l.418,1.12a4.081,4.081,0,0,0,5.382,2.463Z" transform="translate(94.217 130.697)"/><path class="c" d="M78,43.019q9.077-3.374,16.513,1.51a39.928,39.928,0,0,1,9.258-9.249,44.285,44.285,0,0,1,10.1-5.61l1.12-.414q7.627-2.837,13.929.051t9.147,10.508l16.267,43.716-19.623,7.3L119.7,50.474a4.093,4.093,0,0,0-5.387-2.463l-.562.209A52.361,52.361,0,0,0,101.7,55.266L117.341,97.3l-19.618,7.3L82.706,64.24a4.091,4.091,0,0,0-5.382-2.463l-.562.209A52.148,52.148,0,0,0,64.71,69.028l15.64,42.034-19.623,7.3L38.618,58.951,56,52.482l3.2,5.182a43.13,43.13,0,0,1,8.919-9.123,37.019,37.019,0,0,1,8.761-5.1Z" transform="translate(140.867 101.595)"/><path class="c" d="M83.628,81.556l-11-22.709L60.947,27.457l20.18-7.506,11.68,31.391,6.516,24.377Zm.265,7.562,20.18-7.506,6.251,16.811-20.176,7.506Z" transform="translate(222.317 72.776)"/><rect class="c" width="60.993" height="13.946" transform="translate(96.813 155.91) rotate(-23.028)"/><path class="c" d="M73.67,25.994l12.535,32.78,27.068-26.148Z" transform="translate(268.728 94.82)"/><path class="c" d="M41.077,167.127l16.7-6.14L33.975,138l69.056-11.573L93.489,61.433l63.753,28.374L191,31.832l33.756,57.976L288.5,61.433l-2.11,14.394,17.127-6.386L308.58,34.96,231.368,69.334,191,0l-40.37,69.335L73.416,34.96,84.9,113.223,0,127.445Z" transform="translate(0.001 0.001)"/><path class="c" d="M273.34,41.561l-16.657,6.177L290.4,80.309,221.346,91.882l9.537,64.994L167.135,128.5l-33.756,57.98L99.623,128.5,35.87,156.876l4.206-28.662-17.159,6.6L15.8,183.345,93,148.97,133.379,218.3l40.37-69.335,77.212,34.374-11.489-78.258,84.9-14.227Z" transform="translate(57.621 151.605)"/><path class="c" d="M27.5,46.453,0,73.019l38.822,6.5Z" transform="translate(0 169.448)"/></g></g></svg>